<svg width="54" height="38" viewBox="0 0 54 38" fill="none" xmlns="http://www.w3.org/2000/svg">
<path d="M24.4136 36.6081C22.5652 37.2071 20.6121 37.5595 18.5892 37.5595C8.33551 37.5595 0 29.1385 0 18.7797C0 8.42093 8.33551 0 18.5892 0C20.6121 0 22.5652 0.35234 24.4136 0.951318C22.6001 2.04357 20.9609 3.38246 19.5658 4.93276C19.3914 4.93276 19.2519 4.89753 19.0775 4.89753C18.938 4.89753 18.7636 4.89753 18.6241 4.89753C18.38 4.89753 18.1358 4.89753 17.8917 4.89753C10.6374 5.2851 4.88273 11.3454 4.88273 18.7445C4.88273 26.1436 10.6722 32.2391 17.8917 32.5915C18.1358 32.5915 18.38 32.5915 18.6241 32.5915C18.7636 32.5915 18.938 32.5915 19.0775 32.5915C19.2519 32.5915 19.3914 32.5562 19.5658 32.5562C20.9609 34.177 22.5652 35.5159 24.4136 36.6081Z" fill="#FFC7C8"/>
<path fill-rule="evenodd" clip-rule="evenodd" d="M21.9434 5.2851C25.2709 2.00834 29.7769 0 34.7682 0C44.9587 0 53.2428 8.42093 53.2082 18.7797C53.2082 29.1385 44.924 37.5595 34.7335 37.5595C29.7422 37.5595 25.2362 35.5511 21.9087 32.2744C23.6071 31.8515 25.2015 31.1116 26.588 30.0898C26.6573 30.0546 26.7613 29.9489 26.7613 29.9489C30.1582 27.4121 32.3419 23.3249 32.3419 18.7445C32.3419 14.1288 30.1235 10.0769 26.7267 7.54008H26.7613C25.3402 6.48306 23.7111 5.70791 21.9434 5.2851ZM31.5374 32.2745C32.5772 32.5212 33.6518 32.6621 34.7609 32.6621C42.2825 32.6621 48.4176 26.4257 48.4176 18.8151C48.4176 11.1693 42.2825 4.93291 34.7609 4.93291C33.6518 4.93291 32.5772 5.07385 31.5374 5.32049C35.0036 8.73819 37.1526 13.4948 37.1526 18.7799C37.1526 24.065 35.0036 28.8568 31.5374 32.2745Z" fill="#BCBFC1"/>
</svg>
