<svg width="17" height="7" viewBox="0 0 17 7" fill="none" xmlns="http://www.w3.org/2000/svg">
<path d="M15.7796 2.09982C14.4854 2.73348 12.7054 3.31937 10.9302 3.56637C9.35084 3.78608 6.37957 3.25619 6.37957 2.63036C6.37957 2.3932 8.98548 3.21469 10.5618 2.84161C11.7706 2.55554 11.599 1.55249 10.9415 1.42019C10.2878 1.28858 6.45833 0.0440509 4.82258 0.00112034C4.05203 -0.0190789 2.14966 0.238849 1.22912 0.371841C0.913782 0.417362 0.716051 0.412355 0.69633 0.680067C0.604731 1.92425 0.424192 4.46854 0.325782 5.79755C0.323706 5.82563 0.367689 6.20326 0.718971 5.9375C1.10347 5.64666 1.64275 5.32428 2.14155 5.42464C2.9241 5.58215 9.69421 6.6824 10.628 6.48984C11.9639 6.21436 15.7457 4.22627 16.4707 3.60832C17.5946 2.65032 16.7209 1.63893 15.7796 2.09982Z" fill="black"/>
</svg>
