<svg width="75" height="15" viewBox="0 0 75 15" fill="none" xmlns="http://www.w3.org/2000/svg">
<path fill-rule="evenodd" clip-rule="evenodd" d="M9.86134 4.82067L13.0395 5.05554C13.4644 5.08012 13.8334 5.37234 13.9715 5.79837C14.1122 6.22987 13.9927 6.68322 13.6582 6.97817L11.165 9.07012C11.1146 9.11381 11.0907 9.18482 11.1066 9.25309L11.858 12.4129C11.9324 12.7542 11.858 13.0956 11.6536 13.3578C11.4571 13.6118 11.1544 13.762 10.8491 13.762C10.6499 13.762 10.4534 13.6992 10.2835 13.5817L7.57261 11.8694C7.51685 11.8339 7.44516 11.8339 7.38941 11.8694L4.70506 13.5872C4.54309 13.6992 4.34661 13.762 4.14482 13.762C3.81824 13.762 3.50759 13.6009 3.30845 13.3332C3.11463 13.0683 3.05356 12.7297 3.14118 12.4019L3.88993 9.25036C3.90586 9.18482 3.88196 9.11381 3.83151 9.07012L1.37551 6.98363C1.03565 6.68595 0.916168 6.2326 1.05955 5.8011C1.20027 5.37507 1.56668 5.08558 1.99681 5.061L5.16971 4.82614C5.23608 4.82067 5.29184 4.77698 5.31839 4.71416L6.53179 1.68002C6.70172 1.25945 7.0761 1 7.51685 1C7.95761 1 8.33464 1.25945 8.50191 1.67729L9.71266 4.7087C9.73655 4.77425 9.79496 4.81521 9.86134 4.82067ZM10.7575 8.55125L13.2454 6.46203C13.4312 6.29544 13.3781 6.07423 13.3622 6.01688C13.3409 5.95407 13.2533 5.74378 13.0037 5.73012L9.82023 5.49253C9.50692 5.46795 9.2361 5.26859 9.11661 4.96817L7.90321 1.93403C7.80497 1.68824 7.5846 1.66912 7.52087 1.66912C7.45715 1.66912 7.23677 1.68824 7.13853 1.93403L5.92513 4.96817C5.80565 5.26859 5.53483 5.46795 5.22152 5.49253L2.04332 5.72739C1.78842 5.74105 1.7008 5.95134 1.67956 6.01415C1.65832 6.07696 1.60522 6.29817 1.79904 6.47023L4.24974 8.55398C4.49136 8.75881 4.60022 9.09472 4.52587 9.40879L3.77447 12.5713C3.72668 12.7433 3.77978 12.8608 3.83023 12.929C3.95236 13.0929 4.18336 13.1448 4.35595 13.0274L7.05091 11.3041C7.18102 11.2194 7.33236 11.1757 7.48636 11.1757C7.64036 11.1757 7.78904 11.2194 7.91915 11.3014L10.6407 13.0219C10.715 13.0738 10.784 13.0956 10.8531 13.0956C10.9646 13.0956 11.0761 13.0356 11.1505 12.94C11.1982 12.8799 11.2699 12.7515 11.2301 12.5658L10.4787 9.41152C10.4017 9.09472 10.5132 8.75608 10.7575 8.55125Z" fill="#FE9C9C"/>
<path d="M13.0395 5.05554L13.0211 5.30489L13.0251 5.30512L13.0395 5.05554ZM9.86134 4.82067L9.84084 5.06984L9.84292 5.06999L9.86134 4.82067ZM13.9715 5.79837L13.7337 5.87545L13.7338 5.87589L13.9715 5.79837ZM13.6582 6.97817L13.8189 7.16974L13.8235 7.16569L13.6582 6.97817ZM11.165 9.07012L11.0043 8.87858L11.0013 8.88115L11.165 9.07012ZM11.1066 9.25309L10.8631 9.3099L10.8634 9.31093L11.1066 9.25309ZM11.858 12.4129L12.1023 12.3597L12.1012 12.355L11.858 12.4129ZM11.6536 13.3578L11.4564 13.2041L11.4558 13.2048L11.6536 13.3578ZM10.2835 13.5817L10.4258 13.3759L10.417 13.3704L10.2835 13.5817ZM7.57261 11.8694L7.43834 12.0803L7.4391 12.0808L7.57261 11.8694ZM7.38941 11.8694L7.25513 11.6585L7.25465 11.6588L7.38941 11.8694ZM4.70506 13.5872L4.57022 13.3765L4.56289 13.3816L4.70506 13.5872ZM3.30845 13.3332L3.10668 13.4808L3.10788 13.4824L3.30845 13.3332ZM3.14118 12.4019L3.38279 12.4665L3.38441 12.4597L3.14118 12.4019ZM3.88993 9.25036L3.647 9.19132L3.6467 9.19258L3.88993 9.25036ZM3.83151 9.07012L3.9952 8.88114L3.99338 8.87959L3.83151 9.07012ZM1.37551 6.98363L1.21077 7.17171L1.21365 7.17416L1.37551 6.98363ZM1.05955 5.8011L1.29679 5.87994L1.29693 5.87951L1.05955 5.8011ZM1.99681 5.061L2.01108 5.31063L2.01527 5.31032L1.99681 5.061ZM5.16971 4.82614L5.18816 5.07546L5.19021 5.07529L5.16971 4.82614ZM5.31839 4.71416L5.54871 4.81152L5.55052 4.807L5.31839 4.71416ZM6.53179 1.68002L6.3 1.58636L6.29967 1.58719L6.53179 1.68002ZM8.50191 1.67729L8.73408 1.58456L8.734 1.58438L8.50191 1.67729ZM9.71266 4.7087L9.94764 4.62303L9.94482 4.61597L9.71266 4.7087ZM13.2454 6.46203L13.4062 6.65358L13.4122 6.6482L13.2454 6.46203ZM10.7575 8.55125L10.9181 8.74282L10.9183 8.7427L10.7575 8.55125ZM13.3622 6.01688L13.6034 5.94987L13.599 5.93679L13.3622 6.01688ZM13.0037 5.73012L12.9851 5.97948L12.9901 5.97975L13.0037 5.73012ZM9.82023 5.49253L9.80068 5.74176L9.80162 5.74183L9.82023 5.49253ZM9.11661 4.96817L9.34892 4.87578L9.34874 4.87534L9.11661 4.96817ZM7.90321 1.93403L7.67107 2.02682L7.67109 2.02686L7.90321 1.93403ZM7.13853 1.93403L7.37066 2.02686L7.37068 2.02682L7.13853 1.93403ZM5.92513 4.96817L5.69301 4.87534L5.69283 4.87578L5.92513 4.96817ZM5.22152 5.49253L5.23995 5.74185L5.24107 5.74176L5.22152 5.49253ZM2.04332 5.72739L2.05669 5.97709L2.06174 5.97671L2.04332 5.72739ZM1.67956 6.01415L1.44274 5.93406L1.44274 5.93406L1.67956 6.01415ZM1.79904 6.47023L1.63304 6.65723L1.6371 6.66069L1.79904 6.47023ZM4.24974 8.55398L4.0878 8.74444L4.08808 8.74468L4.24974 8.55398ZM4.52587 9.40879L4.7691 9.46658L4.76915 9.46637L4.52587 9.40879ZM3.77447 12.5713L4.01552 12.6382L4.0177 12.6291L3.77447 12.5713ZM3.83023 12.929L3.62916 13.0776L3.62978 13.0785L3.83023 12.929ZM4.35595 13.0274L4.22121 12.8167L4.21531 12.8207L4.35595 13.0274ZM7.05091 11.3041L7.1856 11.5147L7.18727 11.5136L7.05091 11.3041ZM7.91915 11.3014L8.05274 11.0901L8.05237 11.0898L7.91915 11.3014ZM10.6407 13.0219L10.7839 12.8167L10.7743 12.8106L10.6407 13.0219ZM11.1505 12.94L10.9548 12.7843L10.9531 12.7865L11.1505 12.94ZM11.2301 12.5658L11.4746 12.5134L11.4733 12.5079L11.2301 12.5658ZM10.4787 9.41152L10.7219 9.35358L10.7216 9.35247L10.4787 9.41152ZM13.058 4.80622L9.87977 4.57135L9.84292 5.06999L13.0211 5.30486L13.058 4.80622ZM14.2093 5.7213C14.0413 5.20281 13.5875 4.83682 13.054 4.80596L13.0251 5.30512C13.3413 5.32341 13.6256 5.54186 13.7337 5.87545L14.2093 5.7213ZM13.8235 7.16569C14.2351 6.8028 14.3799 6.24439 14.2092 5.72086L13.7338 5.87589C13.8445 6.21535 13.7504 6.56363 13.4929 6.79064L13.8235 7.16569ZM11.3257 9.26163L13.8189 7.16968L13.4975 6.78665L11.0043 8.8786L11.3257 9.26163ZM11.3501 9.19628C11.3552 9.21821 11.3485 9.24189 11.3287 9.25908L11.0013 8.88115C10.8806 8.98573 10.8262 9.15143 10.8631 9.3099L11.3501 9.19628ZM12.1012 12.355L11.3498 9.19525L10.8634 9.31093L11.6148 12.4707L12.1012 12.355ZM11.8507 13.5115C12.1032 13.1878 12.1916 12.7698 12.1023 12.3597L11.6137 12.4661C11.6731 12.7387 11.6129 13.0034 11.4564 13.2041L11.8507 13.5115ZM10.8491 14.012C11.2347 14.012 11.6093 13.8236 11.8513 13.5108L11.4558 13.2048C11.3048 13.4 11.0741 13.512 10.8491 13.512V14.012ZM10.1414 13.7874C10.3512 13.9324 10.5969 14.012 10.8491 14.012V13.512C10.7029 13.512 10.5557 13.4659 10.4256 13.3761L10.1414 13.7874ZM7.4391 12.0808L10.15 13.7931L10.417 13.3704L7.70612 11.658L7.4391 12.0808ZM7.52368 12.0803C7.49752 12.0969 7.4645 12.0969 7.43834 12.0803L7.70688 11.6585C7.56921 11.5709 7.39281 11.5709 7.25513 11.6585L7.52368 12.0803ZM4.83981 13.7978L7.52416 12.08L7.25465 11.6588L4.5703 13.3766L4.83981 13.7978ZM4.14482 14.012C4.39803 14.012 4.64399 13.9333 4.84722 13.7928L4.56289 13.3816C4.44219 13.465 4.29519 13.512 4.14482 13.512V14.012ZM3.10788 13.4824C3.35206 13.8106 3.73572 14.012 4.14482 14.012V13.512C3.90076 13.512 3.66311 13.3911 3.50902 13.184L3.10788 13.4824ZM2.89966 12.3374C2.7932 12.7356 2.8666 13.1527 3.10669 13.4808L3.51021 13.1856C3.36265 12.9839 3.31392 12.7238 3.38269 12.4665L2.89966 12.3374ZM3.6467 9.19258L2.89795 12.3442L3.38441 12.4597L4.13316 9.30815L3.6467 9.19258ZM3.66784 9.25909C3.65741 9.25006 3.65127 9.23973 3.64804 9.22987C3.64476 9.21989 3.64329 9.2066 3.647 9.19132L4.13286 9.30941C4.17157 9.15012 4.11425 8.98427 3.99519 8.88115L3.66784 9.25909ZM1.21365 7.17416L3.66965 9.26064L3.99338 8.87959L1.53737 6.7931L1.21365 7.17416ZM0.8223 5.72227C0.647861 6.24725 0.793712 6.80638 1.21079 7.17169L1.54023 6.79557C1.27759 6.56552 1.18448 6.21795 1.29679 5.87994L0.8223 5.72227ZM1.98255 4.81141C1.44436 4.84216 0.993278 5.20464 0.822161 5.72269L1.29693 5.87951C1.40726 5.5455 1.68899 5.329 2.01107 5.3106L1.98255 4.81141ZM5.15125 4.57682L1.97836 4.81168L2.01527 5.31032L5.18816 5.07545L5.15125 4.57682ZM5.08812 4.61683C5.09404 4.60283 5.11362 4.57991 5.1492 4.57698L5.19021 5.07529C5.35855 5.06144 5.48965 4.95113 5.54867 4.8115L5.08812 4.61683ZM6.29967 1.58719L5.08627 4.62133L5.55052 4.807L6.76392 1.77285L6.29967 1.58719ZM7.51685 0.75C6.96968 0.75 6.50639 1.07555 6.3 1.58637L6.76359 1.77367C6.89706 1.44334 7.18251 1.25 7.51685 1.25V0.75ZM8.734 1.58438C8.52986 1.07444 8.06278 0.75 7.51685 0.75V1.25C7.85243 1.25 8.13941 1.44445 8.26982 1.7702L8.734 1.58438ZM9.94482 4.61597L8.73408 1.58456L8.26974 1.77002L9.48049 4.80143L9.94482 4.61597ZM9.88185 4.57152C9.89362 4.57248 9.90702 4.57684 9.91958 4.58611C9.93259 4.59572 9.9424 4.609 9.94753 4.62307L9.47778 4.79433C9.53718 4.95727 9.68343 5.05688 9.84084 5.06983L9.88185 4.57152ZM13.0846 6.27059L10.5967 8.3598L10.9183 8.7427L13.4061 6.65348L13.0846 6.27059ZM13.1213 6.08379C13.1261 6.10097 13.1343 6.13614 13.1306 6.17469C13.1274 6.20783 13.1162 6.24208 13.0785 6.27587L13.4122 6.6482C13.7154 6.37645 13.6217 6.01693 13.6031 5.94997L13.1213 6.08379ZM12.9901 5.97975C13.038 5.98237 13.0633 6.00057 13.0825 6.02205C13.1065 6.04876 13.1201 6.08148 13.1254 6.09697L13.599 5.93679C13.5728 5.85918 13.4342 5.5033 13.0174 5.4805L12.9901 5.97975ZM9.80162 5.74183L12.9851 5.97943L13.0224 5.48082L9.83883 5.24322L9.80162 5.74183ZM8.88431 5.06057C9.0385 5.44824 9.39097 5.70962 9.80068 5.74176L9.83978 5.24329C9.62287 5.22628 9.43369 5.08893 9.34892 4.87578L8.88431 5.06057ZM7.67109 2.02686L8.88449 5.06101L9.34874 4.87534L8.13534 1.8412L7.67109 2.02686ZM7.52087 1.91912C7.53131 1.91912 7.56211 1.92122 7.59253 1.93555C7.61653 1.94686 7.64773 1.96843 7.67107 2.02682L8.13536 1.84124C7.97876 1.44944 7.61762 1.41912 7.52087 1.41912V1.91912ZM7.37068 2.02682C7.39401 1.96843 7.42522 1.94686 7.44922 1.93555C7.47964 1.92122 7.51044 1.91912 7.52087 1.91912V1.41912C7.42413 1.41912 7.06299 1.44944 6.90639 1.84124L7.37068 2.02682ZM6.15726 5.06101L7.37066 2.02686L6.90641 1.8412L5.69301 4.87534L6.15726 5.06101ZM5.24107 5.74176C5.65078 5.70962 6.00325 5.44824 6.15743 5.06057L5.69283 4.87578C5.60806 5.08893 5.41888 5.22628 5.20197 5.24329L5.24107 5.74176ZM2.06174 5.97671L5.23995 5.74185L5.2031 5.24321L2.02489 5.47807L2.06174 5.97671ZM1.91639 6.09424C1.92155 6.07896 1.93494 6.04678 1.95889 6.02041C1.97799 5.99938 2.00461 5.97983 2.05669 5.97704L2.02994 5.47775C1.60922 5.50029 1.46987 5.85382 1.44274 5.93406L1.91639 6.09424ZM1.96501 6.28326C1.92178 6.24489 1.91053 6.20814 1.90746 6.17684C1.90376 6.13911 1.91265 6.10529 1.91639 6.09423L1.44274 5.93406C1.41246 6.02361 1.32186 6.38093 1.63308 6.65719L1.96501 6.28326ZM4.41168 8.36352L1.96099 6.27977L1.6371 6.66069L4.0878 8.74444L4.41168 8.36352ZM4.76915 9.46637C4.86472 9.06264 4.72621 8.63016 4.4114 8.36328L4.08808 8.74468C4.25651 8.88746 4.33572 9.1268 4.2826 9.3512L4.76915 9.46637ZM4.0177 12.6291L4.7691 9.46658L4.28265 9.351L3.53124 12.5135L4.0177 12.6291ZM4.03129 12.7805C4.02188 12.7677 4.01356 12.7523 4.0092 12.7333C4.00513 12.7155 4.00226 12.6853 4.01535 12.6382L3.53359 12.5044C3.46117 12.7651 3.54277 12.9607 3.62916 13.0776L4.03129 12.7805ZM4.21531 12.8207C4.16452 12.8552 4.08107 12.8473 4.03067 12.7796L3.62978 13.0785C3.82366 13.3386 4.20221 13.4344 4.49658 13.2341L4.21531 12.8207ZM6.91624 11.0935L4.22127 12.8167L4.49062 13.238L7.18559 11.5147L6.91624 11.0935ZM7.48636 10.9257C7.28508 10.9257 7.08617 10.9829 6.91456 11.0946L7.18727 11.5136C7.27586 11.456 7.37964 11.4257 7.48636 11.4257V10.9257ZM8.05237 11.0898C7.88307 10.9832 7.68832 10.9257 7.48636 10.9257V11.4257C7.5924 11.4257 7.69502 11.4557 7.78593 11.5129L8.05237 11.0898ZM10.7743 12.8106L8.05274 11.0901L7.78555 11.5127L10.5071 13.2332L10.7743 12.8106ZM10.8531 12.8456C10.8429 12.8456 10.8229 12.8442 10.7837 12.8169L10.4976 13.2269C10.6071 13.3034 10.7252 13.3456 10.8531 13.3456V12.8456ZM10.9531 12.7865C10.9189 12.8304 10.8764 12.8456 10.8531 12.8456V13.3456C11.0528 13.3456 11.2333 13.2407 11.3478 13.0935L10.9531 12.7865ZM10.9857 12.6183C11.0053 12.7099 10.9712 12.7637 10.9548 12.7843L11.3461 13.0956C11.4253 12.9961 11.5346 12.7932 11.4746 12.5134L10.9857 12.6183ZM10.2355 9.46945L10.9869 12.6238L11.4733 12.5079L10.7219 9.35358L10.2355 9.46945ZM10.5969 8.35968C10.279 8.62624 10.1366 9.06235 10.2358 9.47056L10.7216 9.35247C10.6668 9.12709 10.7475 8.88591 10.9181 8.74282L10.5969 8.35968Z" fill="#FE9C9C"/>
<path fill-rule="evenodd" clip-rule="evenodd" d="M24.8555 4.82067L28.0337 5.05554C28.4586 5.08012 28.8276 5.37234 28.9657 5.79837C29.1064 6.22987 28.9869 6.68322 28.6524 6.97817L26.1592 9.07012C26.1088 9.11381 26.0849 9.18482 26.1008 9.25309L26.8522 12.4129C26.9265 12.7542 26.8522 13.0956 26.6478 13.3578C26.4513 13.6118 26.1486 13.762 25.8432 13.762C25.6441 13.762 25.4476 13.6992 25.2777 13.5817L22.5668 11.8694C22.511 11.8339 22.4394 11.8339 22.3836 11.8694L19.6992 13.5872C19.5373 13.6992 19.3408 13.762 19.139 13.762C18.8124 13.762 18.5018 13.6009 18.3026 13.3332C18.1088 13.0683 18.0477 12.7297 18.1354 12.4019L18.8841 9.25036C18.9 9.18482 18.8761 9.11381 18.8257 9.07012L16.3697 6.98363C16.0298 6.68595 15.9104 6.2326 16.0537 5.8011C16.1945 5.37507 16.5609 5.08558 16.991 5.061L20.1639 4.82614C20.2303 4.82067 20.286 4.77698 20.3126 4.71416L21.526 1.68002C21.6959 1.25945 22.0703 1 22.511 1C22.9518 1 23.3288 1.25945 23.4961 1.67729L24.7068 4.7087C24.7307 4.77425 24.7892 4.81521 24.8555 4.82067ZM25.7478 8.55125L28.2357 6.46203C28.4216 6.29544 28.3685 6.07423 28.3525 6.01688C28.3313 5.95407 28.2437 5.74378 27.9941 5.73012L24.8106 5.49253C24.4973 5.46795 24.2264 5.26859 24.107 4.96817L22.8936 1.93403C22.7953 1.68824 22.5749 1.66912 22.5112 1.66912C22.4475 1.66912 22.2271 1.68824 22.1289 1.93403L20.9155 4.96817C20.796 5.26859 20.5252 5.46795 20.2119 5.49253L17.0337 5.72739C16.7788 5.74105 16.6911 5.95134 16.6699 6.01415C16.6487 6.07696 16.5956 6.29817 16.7894 6.47023L19.2401 8.55398C19.4817 8.75881 19.5906 9.09472 19.5162 9.40879L18.7648 12.5713C18.717 12.7433 18.7701 12.8608 18.8206 12.929C18.9427 13.0929 19.1737 13.1448 19.3463 13.0274L22.0413 11.3041C22.1714 11.2194 22.3227 11.1757 22.4767 11.1757C22.6307 11.1757 22.7794 11.2194 22.9095 11.3014L25.631 13.0219C25.7053 13.0738 25.7744 13.0956 25.8434 13.0956C25.9549 13.0956 26.0664 13.0356 26.1408 12.94C26.1886 12.8799 26.2603 12.7515 26.2204 12.5658L25.469 9.41152C25.392 9.09472 25.5036 8.75608 25.7478 8.55125Z" fill="#FE9C9C"/>
<path d="M28.0337 5.05554L28.0153 5.30489L28.0193 5.30512L28.0337 5.05554ZM24.8555 4.82067L24.835 5.06984L24.8371 5.06999L24.8555 4.82067ZM28.9657 5.79837L28.7279 5.87545L28.728 5.87589L28.9657 5.79837ZM28.6524 6.97817L28.8131 7.16974L28.8177 7.16569L28.6524 6.97817ZM26.1592 9.07012L25.9985 8.87858L25.9955 8.88115L26.1592 9.07012ZM26.1008 9.25309L25.8573 9.3099L25.8576 9.31093L26.1008 9.25309ZM26.8522 12.4129L27.0965 12.3597L27.0954 12.355L26.8522 12.4129ZM26.6478 13.3578L26.4506 13.2041L26.45 13.2048L26.6478 13.3578ZM25.2777 13.5817L25.42 13.3759L25.4112 13.3704L25.2777 13.5817ZM22.5668 11.8694L22.4325 12.0803L22.4333 12.0808L22.5668 11.8694ZM22.3836 11.8694L22.2493 11.6585L22.2488 11.6588L22.3836 11.8694ZM19.6992 13.5872L19.5644 13.3765L19.5571 13.3816L19.6992 13.5872ZM18.3026 13.3332L18.1009 13.4808L18.1021 13.4824L18.3026 13.3332ZM18.1354 12.4019L18.377 12.4665L18.3786 12.4597L18.1354 12.4019ZM18.8841 9.25036L18.6412 9.19132L18.6409 9.19258L18.8841 9.25036ZM18.8257 9.07012L18.9894 8.88114L18.9876 8.87959L18.8257 9.07012ZM16.3697 6.98363L16.205 7.17171L16.2078 7.17416L16.3697 6.98363ZM16.0537 5.8011L16.291 5.87994L16.2911 5.87951L16.0537 5.8011ZM16.991 5.061L17.0053 5.31063L17.0095 5.31032L16.991 5.061ZM20.1639 4.82614L20.1823 5.07546L20.1844 5.07529L20.1639 4.82614ZM20.3126 4.71416L20.5429 4.81152L20.5447 4.807L20.3126 4.71416ZM21.526 1.68002L21.2942 1.58636L21.2939 1.58719L21.526 1.68002ZM23.4961 1.67729L23.7283 1.58456L23.7282 1.58438L23.4961 1.67729ZM24.7068 4.7087L24.9418 4.62303L24.939 4.61597L24.7068 4.7087ZM28.2357 6.46203L28.3966 6.65358L28.4026 6.6482L28.2357 6.46203ZM25.7478 8.55125L25.9085 8.74282L25.9086 8.7427L25.7478 8.55125ZM28.3525 6.01688L28.5938 5.94987L28.5893 5.93679L28.3525 6.01688ZM27.9941 5.73012L27.9755 5.97948L27.9804 5.97975L27.9941 5.73012ZM24.8106 5.49253L24.791 5.74176L24.792 5.74183L24.8106 5.49253ZM24.107 4.96817L24.3393 4.87578L24.3391 4.87534L24.107 4.96817ZM22.8936 1.93403L22.6614 2.02682L22.6614 2.02686L22.8936 1.93403ZM22.1289 1.93403L22.361 2.02686L22.361 2.02682L22.1289 1.93403ZM20.9155 4.96817L20.6833 4.87534L20.6832 4.87578L20.9155 4.96817ZM20.2119 5.49253L20.2303 5.74185L20.2314 5.74176L20.2119 5.49253ZM17.0337 5.72739L17.047 5.97709L17.0521 5.97671L17.0337 5.72739ZM16.6699 6.01415L16.4331 5.93406L16.4331 5.93406L16.6699 6.01415ZM16.7894 6.47023L16.6234 6.65723L16.6274 6.66069L16.7894 6.47023ZM19.2401 8.55398L19.0781 8.74444L19.0784 8.74468L19.2401 8.55398ZM19.5162 9.40879L19.7594 9.46658L19.7595 9.46637L19.5162 9.40879ZM18.7648 12.5713L19.0059 12.6382L19.008 12.6291L18.7648 12.5713ZM18.8206 12.929L18.6195 13.0776L18.6201 13.0785L18.8206 12.929ZM19.3463 13.0274L19.2115 12.8167L19.2056 12.8207L19.3463 13.0274ZM22.0413 11.3041L22.1759 11.5147L22.1776 11.5136L22.0413 11.3041ZM22.9095 11.3014L23.0431 11.0901L23.0427 11.0898L22.9095 11.3014ZM25.631 13.0219L25.7742 12.8167L25.7646 12.8106L25.631 13.0219ZM26.1408 12.94L25.9451 12.7843L25.9435 12.7865L26.1408 12.94ZM26.2204 12.5658L26.4649 12.5134L26.4636 12.5079L26.2204 12.5658ZM25.469 9.41152L25.7122 9.35358L25.712 9.35247L25.469 9.41152ZM28.0522 4.80622L24.874 4.57135L24.8371 5.06999L28.0153 5.30486L28.0522 4.80622ZM29.2035 5.7213C29.0355 5.20281 28.5817 4.83682 28.0482 4.80596L28.0193 5.30512C28.3355 5.32341 28.6198 5.54186 28.7279 5.87545L29.2035 5.7213ZM28.8177 7.16569C29.2293 6.8028 29.3741 6.24439 29.2034 5.72086L28.728 5.87589C28.8387 6.21535 28.7445 6.56363 28.4871 6.79064L28.8177 7.16569ZM26.3199 9.26163L28.8131 7.16968L28.4917 6.78665L25.9985 8.8786L26.3199 9.26163ZM26.3443 9.19628C26.3494 9.21821 26.3427 9.24189 26.3229 9.25908L25.9955 8.88115C25.8748 8.98573 25.8204 9.15143 25.8573 9.3099L26.3443 9.19628ZM27.0954 12.355L26.344 9.19525L25.8576 9.31093L26.609 12.4707L27.0954 12.355ZM26.8449 13.5115C27.0974 13.1878 27.1858 12.7698 27.0965 12.3597L26.6079 12.4661C26.6673 12.7387 26.607 13.0034 26.4506 13.2041L26.8449 13.5115ZM25.8432 14.012C26.2289 14.012 26.6035 13.8236 26.8455 13.5108L26.45 13.2048C26.299 13.4 26.0682 13.512 25.8432 13.512V14.012ZM25.1356 13.7874C25.3454 13.9324 25.5911 14.012 25.8432 14.012V13.512C25.6971 13.512 25.5498 13.4659 25.4198 13.3761L25.1356 13.7874ZM22.4333 12.0808L25.1442 13.7931L25.4112 13.3704L22.7003 11.658L22.4333 12.0808ZM22.5179 12.0803C22.4917 12.0969 22.4587 12.0969 22.4325 12.0803L22.7011 11.6585C22.5634 11.5709 22.387 11.5709 22.2493 11.6585L22.5179 12.0803ZM19.834 13.7978L22.5183 12.08L22.2488 11.6588L19.5645 13.3766L19.834 13.7978ZM19.139 14.012C19.3922 14.012 19.6382 13.9333 19.8414 13.7928L19.5571 13.3816C19.4364 13.465 19.2894 13.512 19.139 13.512V14.012ZM18.1021 13.4824C18.3463 13.8106 18.7299 14.012 19.139 14.012V13.512C18.8949 13.512 18.6573 13.3911 18.5032 13.184L18.1021 13.4824ZM17.8938 12.3374C17.7874 12.7356 17.8608 13.1527 18.1009 13.4808L18.5044 13.1856C18.3568 12.9839 18.3081 12.7238 18.3769 12.4665L17.8938 12.3374ZM18.6409 9.19258L17.8921 12.3442L18.3786 12.4597L19.1273 9.30815L18.6409 9.19258ZM18.662 9.25909C18.6516 9.25006 18.6455 9.23973 18.6422 9.22987C18.639 9.21989 18.6375 9.2066 18.6412 9.19132L19.127 9.30941C19.1658 9.15012 19.1084 8.98427 18.9894 8.88115L18.662 9.25909ZM16.2078 7.17416L18.6638 9.26064L18.9876 8.87959L16.5316 6.7931L16.2078 7.17416ZM15.8165 5.72227C15.642 6.24725 15.7879 6.80638 16.205 7.17169L16.5344 6.79557C16.2718 6.56552 16.1787 6.21795 16.291 5.87994L15.8165 5.72227ZM16.9767 4.81141C16.4386 4.84216 15.9875 5.20464 15.8163 5.72269L16.2911 5.87951C16.4014 5.5455 16.6832 5.329 17.0053 5.3106L16.9767 4.81141ZM20.1454 4.57682L16.9725 4.81168L17.0095 5.31032L20.1823 5.07545L20.1454 4.57682ZM20.0823 4.61683C20.0882 4.60283 20.1078 4.57991 20.1434 4.57698L20.1844 5.07529C20.3527 5.06144 20.4838 4.95113 20.5429 4.8115L20.0823 4.61683ZM21.2939 1.58719L20.0805 4.62133L20.5447 4.807L21.7581 1.77285L21.2939 1.58719ZM22.511 0.75C21.9639 0.75 21.5006 1.07555 21.2942 1.58637L21.7578 1.77367C21.8912 1.44334 22.1767 1.25 22.511 1.25V0.75ZM23.7282 1.58438C23.5241 1.07444 23.057 0.75 22.511 0.75V1.25C22.8466 1.25 23.1336 1.44445 23.264 1.7702L23.7282 1.58438ZM24.939 4.61597L23.7283 1.58456L23.2639 1.77002L24.4747 4.80143L24.939 4.61597ZM24.876 4.57152C24.8878 4.57248 24.9012 4.57684 24.9138 4.58611C24.9268 4.59572 24.9366 4.609 24.9417 4.62307L24.472 4.79433C24.5314 4.95727 24.6776 5.05688 24.835 5.06983L24.876 4.57152ZM28.0749 6.27059L25.5871 8.3598L25.9086 8.7427L28.3965 6.65348L28.0749 6.27059ZM28.1116 6.08379C28.1164 6.10097 28.1246 6.13614 28.1209 6.17469C28.1177 6.20783 28.1065 6.24208 28.0688 6.27587L28.4026 6.6482C28.7057 6.37645 28.612 6.01693 28.5934 5.94997L28.1116 6.08379ZM27.9804 5.97975C28.0283 5.98237 28.0536 6.00057 28.0729 6.02205C28.0968 6.04876 28.1105 6.08148 28.1157 6.09697L28.5893 5.93679C28.5631 5.85918 28.4245 5.5033 28.0077 5.4805L27.9804 5.97975ZM24.792 5.74183L27.9755 5.97943L28.0127 5.48082L24.8292 5.24322L24.792 5.74183ZM23.8747 5.06057C24.0288 5.44824 24.3813 5.70962 24.791 5.74176L24.8301 5.24329C24.6132 5.22628 24.424 5.08893 24.3393 4.87578L23.8747 5.06057ZM22.6614 2.02686L23.8748 5.06101L24.3391 4.87534L23.1257 1.8412L22.6614 2.02686ZM22.5112 1.91912C22.5216 1.91912 22.5524 1.92122 22.5829 1.93555C22.6069 1.94686 22.6381 1.96843 22.6614 2.02682L23.1257 1.84124C22.9691 1.44944 22.608 1.41912 22.5112 1.41912V1.91912ZM22.361 2.02682C22.3844 1.96843 22.4156 1.94686 22.4396 1.93555C22.47 1.92122 22.5008 1.91912 22.5112 1.91912V1.41912C22.4145 1.41912 22.0533 1.44944 21.8967 1.84124L22.361 2.02682ZM21.1476 5.06101L22.361 2.02686L21.8967 1.8412L20.6833 4.87534L21.1476 5.06101ZM20.2314 5.74176C20.6411 5.70962 20.9936 5.44824 21.1478 5.06057L20.6832 4.87578C20.5984 5.08893 20.4092 5.22628 20.1923 5.24329L20.2314 5.74176ZM17.0521 5.97671L20.2303 5.74185L20.1934 5.24321L17.0152 5.47807L17.0521 5.97671ZM16.9067 6.09424C16.9119 6.07896 16.9253 6.04678 16.9492 6.02041C16.9683 5.99938 16.9949 5.97983 17.047 5.97704L17.0203 5.47775C16.5996 5.50029 16.4602 5.85382 16.4331 5.93406L16.9067 6.09424ZM16.9553 6.28326C16.9121 6.24489 16.9009 6.20814 16.8978 6.17684C16.8941 6.13911 16.903 6.10529 16.9067 6.09423L16.4331 5.93406C16.4028 6.02361 16.3122 6.38093 16.6234 6.65719L16.9553 6.28326ZM19.402 8.36352L16.9513 6.27977L16.6274 6.66069L19.0781 8.74444L19.402 8.36352ZM19.7595 9.46637C19.8551 9.06264 19.7165 8.63016 19.4017 8.36328L19.0784 8.74468C19.2468 8.88746 19.3261 9.1268 19.2729 9.3512L19.7595 9.46637ZM19.008 12.6291L19.7594 9.46658L19.273 9.351L18.5216 12.5135L19.008 12.6291ZM19.0216 12.7805C19.0122 12.7677 19.0039 12.7523 18.9995 12.7333C18.9955 12.7155 18.9926 12.6853 19.0057 12.6382L18.5239 12.5044C18.4515 12.7651 18.5331 12.9607 18.6195 13.0776L19.0216 12.7805ZM19.2056 12.8207C19.1549 12.8552 19.0714 12.8473 19.021 12.7796L18.6201 13.0785C18.814 13.3386 19.1925 13.4344 19.4869 13.2341L19.2056 12.8207ZM21.9066 11.0935L19.2116 12.8167L19.481 13.238L22.1759 11.5147L21.9066 11.0935ZM22.4767 10.9257C22.2754 10.9257 22.0765 10.9829 21.9049 11.0946L22.1776 11.5136C22.2662 11.456 22.37 11.4257 22.4767 11.4257V10.9257ZM23.0427 11.0898C22.8734 10.9832 22.6787 10.9257 22.4767 10.9257V11.4257C22.5827 11.4257 22.6854 11.4557 22.7763 11.5129L23.0427 11.0898ZM25.7646 12.8106L23.0431 11.0901L22.7759 11.5127L25.4974 13.2332L25.7646 12.8106ZM25.8434 12.8456C25.8332 12.8456 25.8132 12.8442 25.7741 12.8169L25.4879 13.2269C25.5975 13.3034 25.7156 13.3456 25.8434 13.3456V12.8456ZM25.9435 12.7865C25.9093 12.8304 25.8668 12.8456 25.8434 12.8456V13.3456C26.0431 13.3456 26.2236 13.2407 26.3381 13.0935L25.9435 12.7865ZM25.976 12.6182C25.9957 12.7099 25.9616 12.7637 25.9451 12.7843L26.3364 13.0956C26.4156 12.9961 26.5249 12.7932 26.4649 12.5134L25.976 12.6182ZM25.2258 9.46945L25.9773 12.6238L26.4636 12.5079L25.7122 9.35358L25.2258 9.46945ZM25.5872 8.35968C25.2693 8.62624 25.1269 9.06235 25.2261 9.47056L25.712 9.35247C25.6572 9.12709 25.7378 8.88591 25.9085 8.74282L25.5872 8.35968Z" fill="#FE9C9C"/>
<path fill-rule="evenodd" clip-rule="evenodd" d="M39.8448 4.82067L43.0231 5.05554C43.4479 5.08012 43.8169 5.37234 43.955 5.79837C44.0957 6.22987 43.9762 6.68322 43.6417 6.97817L41.1485 9.07012C41.0981 9.11381 41.0742 9.18482 41.0901 9.25309L41.8415 12.4129C41.9159 12.7542 41.8415 13.0956 41.6371 13.3578C41.4406 13.6118 41.1379 13.762 40.8326 13.762C40.6334 13.762 40.4369 13.6992 40.267 13.5817L37.5561 11.8694C37.5004 11.8339 37.4287 11.8339 37.3729 11.8694L34.6886 13.5872C34.5266 13.6992 34.3301 13.762 34.1283 13.762C33.8017 13.762 33.4911 13.6009 33.292 13.3332C33.0981 13.0683 33.0371 12.7297 33.1247 12.4019L33.8734 9.25036C33.8894 9.18482 33.8655 9.11381 33.815 9.07012L31.359 6.98363C31.0192 6.68595 30.8997 6.2326 31.0431 5.8011C31.1838 5.37507 31.5502 5.08558 31.9803 5.061L35.1532 4.82614C35.2196 4.82067 35.2753 4.77698 35.3019 4.71416L36.5153 1.68002C36.6852 1.25945 37.0596 1 37.5004 1C37.9411 1 38.3181 1.25945 38.4854 1.67729L39.6962 4.7087C39.7201 4.77425 39.7785 4.81521 39.8448 4.82067ZM40.7401 8.55125L43.228 6.46203C43.4139 6.29544 43.3608 6.07423 43.3448 6.01688C43.3236 5.95407 43.236 5.74378 42.9864 5.73012L39.8029 5.49253C39.4896 5.46795 39.2187 5.26859 39.0993 4.96817L37.8859 1.93403C37.7876 1.68824 37.5672 1.66912 37.5035 1.66912C37.4398 1.66912 37.2194 1.68824 37.1212 1.93403L35.9078 4.96817C35.7883 5.26859 35.5175 5.46795 35.2042 5.49253L32.026 5.72739C31.7711 5.74105 31.6834 5.95134 31.6622 6.01415C31.641 6.07696 31.5879 6.29817 31.7817 6.47023L34.2324 8.55398C34.474 8.75881 34.5829 9.09472 34.5085 9.40879L33.7571 12.5713C33.7093 12.7433 33.7624 12.8608 33.8129 12.929C33.935 13.0929 34.166 13.1448 34.3386 13.0274L37.0336 11.3041C37.1637 11.2194 37.315 11.1757 37.469 11.1757C37.623 11.1757 37.7717 11.2194 37.9018 11.3014L40.6233 13.0219C40.6976 13.0738 40.7667 13.0956 40.8357 13.0956C40.9472 13.0956 41.0587 13.0356 41.1331 12.94C41.1809 12.8799 41.2526 12.7515 41.2127 12.5658L40.4613 9.41152C40.3843 9.09472 40.4959 8.75608 40.7401 8.55125Z" fill="#FE9C9C"/>
<path d="M43.0231 5.05554L43.0046 5.30489L43.0086 5.30512L43.0231 5.05554ZM39.8448 4.82067L39.8243 5.06984L39.8264 5.06999L39.8448 4.82067ZM43.955 5.79837L43.7172 5.87545L43.7173 5.87589L43.955 5.79837ZM43.6417 6.97817L43.8024 7.16974L43.807 7.16569L43.6417 6.97817ZM41.1485 9.07012L40.9878 8.87858L40.9848 8.88115L41.1485 9.07012ZM41.0901 9.25309L40.8466 9.3099L40.8469 9.31093L41.0901 9.25309ZM41.8415 12.4129L42.0858 12.3597L42.0847 12.355L41.8415 12.4129ZM41.6371 13.3578L41.4399 13.2041L41.4393 13.2048L41.6371 13.3578ZM40.267 13.5817L40.4093 13.3759L40.4005 13.3704L40.267 13.5817ZM37.5561 11.8694L37.4218 12.0803L37.4226 12.0808L37.5561 11.8694ZM37.3729 11.8694L37.2386 11.6585L37.2382 11.6588L37.3729 11.8694ZM34.6886 13.5872L34.5537 13.3765L34.5464 13.3816L34.6886 13.5872ZM33.292 13.3332L33.0902 13.4808L33.0914 13.4824L33.292 13.3332ZM33.1247 12.4019L33.3663 12.4665L33.3679 12.4597L33.1247 12.4019ZM33.8734 9.25036L33.6305 9.19132L33.6302 9.19258L33.8734 9.25036ZM33.815 9.07012L33.9787 8.88114L33.9769 8.87959L33.815 9.07012ZM31.359 6.98363L31.1943 7.17171L31.1972 7.17416L31.359 6.98363ZM31.0431 5.8011L31.2803 5.87994L31.2804 5.87951L31.0431 5.8011ZM31.9803 5.061L31.9946 5.31063L31.9988 5.31032L31.9803 5.061ZM35.1532 4.82614L35.1717 5.07546L35.1737 5.07529L35.1532 4.82614ZM35.3019 4.71416L35.5322 4.81152L35.534 4.807L35.3019 4.71416ZM36.5153 1.68002L36.2835 1.58636L36.2832 1.58719L36.5153 1.68002ZM38.4854 1.67729L38.7176 1.58456L38.7175 1.58438L38.4854 1.67729ZM39.6962 4.7087L39.9311 4.62303L39.9283 4.61597L39.6962 4.7087ZM43.228 6.46203L43.3889 6.65358L43.3949 6.6482L43.228 6.46203ZM40.7401 8.55125L40.9008 8.74282L40.9009 8.7427L40.7401 8.55125ZM43.3448 6.01688L43.5861 5.94987L43.5816 5.93679L43.3448 6.01688ZM42.9864 5.73012L42.9678 5.97948L42.9727 5.97975L42.9864 5.73012ZM39.8029 5.49253L39.7833 5.74176L39.7843 5.74183L39.8029 5.49253ZM39.0993 4.96817L39.3316 4.87578L39.3314 4.87534L39.0993 4.96817ZM37.8859 1.93403L37.6537 2.02682L37.6537 2.02686L37.8859 1.93403ZM37.1212 1.93403L37.3533 2.02686L37.3533 2.02682L37.1212 1.93403ZM35.9078 4.96817L35.6756 4.87534L35.6755 4.87578L35.9078 4.96817ZM35.2042 5.49253L35.2226 5.74185L35.2237 5.74176L35.2042 5.49253ZM32.026 5.72739L32.0393 5.97709L32.0444 5.97671L32.026 5.72739ZM31.6622 6.01415L31.4254 5.93406L31.4254 5.93406L31.6622 6.01415ZM31.7817 6.47023L31.6157 6.65723L31.6197 6.66069L31.7817 6.47023ZM34.2324 8.55398L34.0704 8.74444L34.0707 8.74468L34.2324 8.55398ZM34.5085 9.40879L34.7517 9.46658L34.7518 9.46637L34.5085 9.40879ZM33.7571 12.5713L33.9982 12.6382L34.0003 12.6291L33.7571 12.5713ZM33.8129 12.929L33.6118 13.0776L33.6124 13.0785L33.8129 12.929ZM34.3386 13.0274L34.2038 12.8167L34.1979 12.8207L34.3386 13.0274ZM37.0336 11.3041L37.1682 11.5147L37.1699 11.5136L37.0336 11.3041ZM37.9018 11.3014L38.0354 11.0901L38.035 11.0898L37.9018 11.3014ZM40.6233 13.0219L40.7665 12.8167L40.7569 12.8106L40.6233 13.0219ZM41.1331 12.94L40.9374 12.7843L40.9358 12.7865L41.1331 12.94ZM41.2127 12.5658L41.4572 12.5134L41.4559 12.5079L41.2127 12.5658ZM40.4613 9.41152L40.7045 9.35358L40.7043 9.35247L40.4613 9.41152ZM43.0415 4.80622L39.8633 4.57135L39.8264 5.06999L43.0046 5.30486L43.0415 4.80622ZM44.1928 5.7213C44.0248 5.20281 43.571 4.83682 43.0375 4.80596L43.0086 5.30512C43.3248 5.32341 43.6091 5.54186 43.7172 5.87545L44.1928 5.7213ZM43.807 7.16569C44.2186 6.8028 44.3634 6.24439 44.1927 5.72086L43.7173 5.87589C43.828 6.21535 43.7339 6.56363 43.4764 6.79064L43.807 7.16569ZM41.3092 9.26163L43.8024 7.16968L43.481 6.78665L40.9878 8.8786L41.3092 9.26163ZM41.3336 9.19628C41.3387 9.21821 41.3321 9.24189 41.3122 9.25908L40.9848 8.88115C40.8641 8.98573 40.8097 9.15143 40.8467 9.3099L41.3336 9.19628ZM42.0847 12.355L41.3333 9.19525L40.8469 9.31093L41.5983 12.4707L42.0847 12.355ZM41.8342 13.5115C42.0867 13.1878 42.1751 12.7698 42.0858 12.3597L41.5972 12.4661C41.6566 12.7387 41.5964 13.0034 41.4399 13.2041L41.8342 13.5115ZM40.8326 14.012C41.2182 14.012 41.5928 13.8236 41.8348 13.5108L41.4393 13.2048C41.2884 13.4 41.0576 13.512 40.8326 13.512V14.012ZM40.1249 13.7874C40.3347 13.9324 40.5804 14.012 40.8326 14.012V13.512C40.6864 13.512 40.5392 13.4659 40.4091 13.3761L40.1249 13.7874ZM37.4226 12.0808L40.1335 13.7931L40.4005 13.3704L37.6896 11.658L37.4226 12.0808ZM37.5072 12.0803C37.481 12.0969 37.448 12.0969 37.4218 12.0803L37.6904 11.6585C37.5527 11.5709 37.3763 11.5709 37.2386 11.6585L37.5072 12.0803ZM34.8233 13.7978L37.5077 12.08L37.2382 11.6588L34.5538 13.3766L34.8233 13.7978ZM34.1283 14.012C34.3815 14.012 34.6275 13.9333 34.8307 13.7928L34.5464 13.3816C34.4257 13.465 34.2787 13.512 34.1283 13.512V14.012ZM33.0914 13.4824C33.3356 13.8106 33.7192 14.012 34.1283 14.012V13.512C33.8843 13.512 33.6466 13.3911 33.4925 13.184L33.0914 13.4824ZM32.8832 12.3374C32.7767 12.7356 32.8501 13.1527 33.0902 13.4808L33.4937 13.1856C33.3462 12.9839 33.2974 12.7238 33.3662 12.4665L32.8832 12.3374ZM33.6302 9.19258L32.8815 12.3442L33.3679 12.4597L34.1167 9.30815L33.6302 9.19258ZM33.6513 9.25909C33.6409 9.25006 33.6348 9.23973 33.6315 9.22987C33.6283 9.21989 33.6268 9.2066 33.6305 9.19132L34.1164 9.30941C34.1551 9.15012 34.0978 8.98427 33.9787 8.88115L33.6513 9.25909ZM31.1972 7.17416L33.6532 9.26064L33.9769 8.87959L31.5209 6.7931L31.1972 7.17416ZM30.8058 5.72227C30.6314 6.24725 30.7772 6.80638 31.1943 7.17169L31.5237 6.79557C31.2611 6.56552 31.168 6.21795 31.2803 5.87994L30.8058 5.72227ZM31.9661 4.81141C31.4279 4.84216 30.9768 5.20464 30.8057 5.72269L31.2804 5.87951C31.3908 5.5455 31.6725 5.329 31.9946 5.3106L31.9661 4.81141ZM35.1348 4.57682L31.9619 4.81168L31.9988 5.31032L35.1717 5.07545L35.1348 4.57682ZM35.0716 4.61683C35.0775 4.60283 35.0971 4.57991 35.1327 4.57698L35.1737 5.07529C35.3421 5.06144 35.4732 4.95113 35.5322 4.8115L35.0716 4.61683ZM36.2832 1.58719L35.0698 4.62133L35.534 4.807L36.7474 1.77285L36.2832 1.58719ZM37.5004 0.75C36.9532 0.75 36.4899 1.07555 36.2835 1.58637L36.7471 1.77367C36.8806 1.44334 37.166 1.25 37.5004 1.25V0.75ZM38.7175 1.58438C38.5134 1.07444 38.0463 0.75 37.5004 0.75V1.25C37.8359 1.25 38.1229 1.44445 38.2533 1.7702L38.7175 1.58438ZM39.9283 4.61597L38.7176 1.58456L38.2532 1.77002L39.464 4.80143L39.9283 4.61597ZM39.8654 4.57152C39.8771 4.57248 39.8905 4.57684 39.9031 4.58611C39.9161 4.59572 39.9259 4.609 39.931 4.62307L39.4613 4.79433C39.5207 4.95727 39.6669 5.05688 39.8243 5.06983L39.8654 4.57152ZM43.0672 6.27059L40.5794 8.3598L40.9009 8.7427L43.3888 6.65348L43.0672 6.27059ZM43.1039 6.08379C43.1087 6.10097 43.1169 6.13614 43.1132 6.17469C43.11 6.20783 43.0988 6.24208 43.0611 6.27587L43.3949 6.6482C43.698 6.37645 43.6043 6.01693 43.5857 5.94997L43.1039 6.08379ZM42.9727 5.97975C43.0206 5.98237 43.0459 6.00057 43.0652 6.02205C43.0891 6.04876 43.1028 6.08148 43.108 6.09697L43.5816 5.93679C43.5554 5.85918 43.4168 5.5033 43 5.4805L42.9727 5.97975ZM39.7843 5.74183L42.9678 5.97943L43.005 5.48082L39.8215 5.24322L39.7843 5.74183ZM38.867 5.06057C39.0211 5.44824 39.3736 5.70962 39.7833 5.74176L39.8224 5.24329C39.6055 5.22628 39.4163 5.08893 39.3316 4.87578L38.867 5.06057ZM37.6537 2.02686L38.8671 5.06101L39.3314 4.87534L38.118 1.8412L37.6537 2.02686ZM37.5035 1.91912C37.5139 1.91912 37.5447 1.92122 37.5752 1.93555C37.5992 1.94686 37.6304 1.96843 37.6537 2.02682L38.118 1.84124C37.9614 1.44944 37.6003 1.41912 37.5035 1.41912V1.91912ZM37.3533 2.02682C37.3767 1.96843 37.4079 1.94686 37.4319 1.93555C37.4623 1.92122 37.4931 1.91912 37.5035 1.91912V1.41912C37.4068 1.41912 37.0456 1.44944 36.889 1.84124L37.3533 2.02682ZM36.1399 5.06101L37.3533 2.02686L36.889 1.8412L35.6756 4.87534L36.1399 5.06101ZM35.2237 5.74176C35.6334 5.70962 35.9859 5.44824 36.1401 5.06057L35.6755 4.87578C35.5907 5.08893 35.4015 5.22628 35.1846 5.24329L35.2237 5.74176ZM32.0444 5.97671L35.2226 5.74185L35.1857 5.24321L32.0075 5.47807L32.0444 5.97671ZM31.899 6.09424C31.9042 6.07896 31.9176 6.04678 31.9415 6.02041C31.9606 5.99938 31.9872 5.97983 32.0393 5.97704L32.0126 5.47775C31.5919 5.50029 31.4525 5.85382 31.4254 5.93406L31.899 6.09424ZM31.9476 6.28326C31.9044 6.24489 31.8932 6.20814 31.8901 6.17684C31.8864 6.13911 31.8953 6.10529 31.899 6.09423L31.4254 5.93406C31.3951 6.02361 31.3045 6.38093 31.6157 6.65719L31.9476 6.28326ZM34.3943 8.36352L31.9436 6.27977L31.6197 6.66069L34.0704 8.74444L34.3943 8.36352ZM34.7518 9.46637C34.8474 9.06264 34.7088 8.63016 34.394 8.36328L34.0707 8.74468C34.2391 8.88746 34.3184 9.1268 34.2652 9.3512L34.7518 9.46637ZM34.0003 12.6291L34.7517 9.46658L34.2653 9.351L33.5139 12.5135L34.0003 12.6291ZM34.0139 12.7805C34.0045 12.7677 33.9962 12.7523 33.9918 12.7333C33.9878 12.7155 33.9849 12.6853 33.998 12.6382L33.5162 12.5044C33.4438 12.7651 33.5254 12.9607 33.6118 13.0776L34.0139 12.7805ZM34.1979 12.8207C34.1472 12.8552 34.0637 12.8473 34.0133 12.7796L33.6124 13.0785C33.8063 13.3386 34.1848 13.4344 34.4792 13.2341L34.1979 12.8207ZM36.8989 11.0935L34.2039 12.8167L34.4733 13.238L37.1682 11.5147L36.8989 11.0935ZM37.469 10.9257C37.2677 10.9257 37.0688 10.9829 36.8972 11.0946L37.1699 11.5136C37.2585 11.456 37.3623 11.4257 37.469 11.4257V10.9257ZM38.035 11.0898C37.8657 10.9832 37.671 10.9257 37.469 10.9257V11.4257C37.575 11.4257 37.6777 11.4557 37.7686 11.5129L38.035 11.0898ZM40.7569 12.8106L38.0354 11.0901L37.7682 11.5127L40.4897 13.2332L40.7569 12.8106ZM40.8357 12.8456C40.8255 12.8456 40.8055 12.8442 40.7664 12.8169L40.4802 13.2269C40.5898 13.3034 40.7079 13.3456 40.8357 13.3456V12.8456ZM40.9358 12.7865C40.9016 12.8304 40.8591 12.8456 40.8357 12.8456V13.3456C41.0354 13.3456 41.2159 13.2407 41.3304 13.0935L40.9358 12.7865ZM40.9683 12.6183C40.988 12.7099 40.9539 12.7637 40.9374 12.7843L41.3287 13.0956C41.4079 12.9961 41.5172 12.7932 41.4572 12.5134L40.9683 12.6183ZM40.2181 9.46945L40.9695 12.6238L41.4559 12.5079L40.7045 9.35358L40.2181 9.46945ZM40.5795 8.35968C40.2616 8.62624 40.1192 9.06235 40.2184 9.47056L40.7043 9.35247C40.6495 9.12709 40.7301 8.88591 40.9008 8.74282L40.5795 8.35968Z" fill="#FE9C9C"/>
<path fill-rule="evenodd" clip-rule="evenodd" d="M54.8381 4.82067L58.0163 5.05554C58.4411 5.08012 58.8102 5.37234 58.9482 5.79837C59.0889 6.22987 58.9695 6.68322 58.6349 6.97817L56.1417 9.07012C56.0913 9.11381 56.0674 9.18482 56.0833 9.25309L56.8347 12.4129C56.9091 12.7542 56.8347 13.0956 56.6303 13.3578C56.4338 13.6118 56.1311 13.762 55.8258 13.762C55.6266 13.762 55.4302 13.6992 55.2602 13.5817L52.5493 11.8694C52.4936 11.8339 52.4219 11.8339 52.3661 11.8694L49.6818 13.5872C49.5198 13.6992 49.3233 13.762 49.1215 13.762C48.795 13.762 48.4843 13.6009 48.2852 13.3332C48.0913 13.0683 48.0303 12.7297 48.1179 12.4019L48.8666 9.25036C48.8826 9.18482 48.8587 9.11381 48.8082 9.07012L46.3522 6.98363C46.0124 6.68595 45.8929 6.2326 46.0363 5.8011C46.177 5.37507 46.5434 5.08558 46.9735 5.061L50.1464 4.82614C50.2128 4.82067 50.2686 4.77698 50.2951 4.71416L51.5085 1.68002C51.6784 1.25945 52.0528 1 52.4936 1C52.9343 1 53.3114 1.25945 53.4786 1.67729L54.6894 4.7087C54.7133 4.77425 54.7717 4.81521 54.8381 4.82067ZM55.7344 8.55125L58.2222 6.46203C58.4081 6.29544 58.355 6.07423 58.3391 6.01688C58.3178 5.95407 58.2302 5.74378 57.9806 5.73012L54.7971 5.49253C54.4838 5.46795 54.213 5.26859 54.0935 4.96817L52.8801 1.93403C52.7818 1.68824 52.5615 1.66912 52.4977 1.66912C52.434 1.66912 52.2136 1.68824 52.1154 1.93403L50.902 4.96817C50.7825 5.26859 50.5117 5.46795 50.1984 5.49253L47.0202 5.72739C46.7653 5.74105 46.6777 5.95134 46.6564 6.01415C46.6352 6.07696 46.5821 6.29817 46.7759 6.47023L49.2266 8.55398C49.4682 8.75881 49.5771 9.09472 49.5027 9.40879L48.7513 12.5713C48.7035 12.7433 48.7566 12.8608 48.8071 12.929C48.9292 13.0929 49.1602 13.1448 49.3328 13.0274L52.0278 11.3041C52.1579 11.2194 52.3092 11.1757 52.4632 11.1757C52.6172 11.1757 52.7659 11.2194 52.896 11.3014L55.6175 13.0219C55.6919 13.0738 55.7609 13.0956 55.8299 13.0956C55.9415 13.0956 56.053 13.0356 56.1273 12.94C56.1751 12.8799 56.2468 12.7515 56.207 12.5658L55.4556 9.41152C55.3786 9.09472 55.4901 8.75608 55.7344 8.55125Z" fill="#FE9C9C"/>
<path d="M58.0163 5.05554L57.9978 5.30489L58.0018 5.30512L58.0163 5.05554ZM54.8381 4.82067L54.8176 5.06984L54.8196 5.06999L54.8381 4.82067ZM58.9482 5.79837L58.7104 5.87545L58.7105 5.87589L58.9482 5.79837ZM58.6349 6.97817L58.7957 7.16974L58.8002 7.16569L58.6349 6.97817ZM56.1417 9.07012L55.981 8.87858L55.9781 8.88115L56.1417 9.07012ZM56.0833 9.25309L55.8399 9.3099L55.8401 9.31093L56.0833 9.25309ZM56.8347 12.4129L57.079 12.3597L57.0779 12.355L56.8347 12.4129ZM56.6303 13.3578L56.4331 13.2041L56.4325 13.2048L56.6303 13.3578ZM55.2602 13.5817L55.4025 13.3759L55.3937 13.3704L55.2602 13.5817ZM52.5493 11.8694L52.4151 12.0803L52.4158 12.0808L52.5493 11.8694ZM52.3661 11.8694L52.2318 11.6585L52.2314 11.6588L52.3661 11.8694ZM49.6818 13.5872L49.5469 13.3765L49.5396 13.3816L49.6818 13.5872ZM48.2852 13.3332L48.0834 13.4808L48.0846 13.4824L48.2852 13.3332ZM48.1179 12.4019L48.3595 12.4665L48.3611 12.4597L48.1179 12.4019ZM48.8666 9.25036L48.6237 9.19132L48.6234 9.19258L48.8666 9.25036ZM48.8082 9.07012L48.9719 8.88114L48.9701 8.87959L48.8082 9.07012ZM46.3522 6.98363L46.1875 7.17171L46.1904 7.17416L46.3522 6.98363ZM46.0363 5.8011L46.2735 5.87994L46.2736 5.87951L46.0363 5.8011ZM46.9735 5.061L46.9878 5.31063L46.992 5.31032L46.9735 5.061ZM50.1464 4.82614L50.1649 5.07546L50.1669 5.07529L50.1464 4.82614ZM50.2951 4.71416L50.5254 4.81152L50.5272 4.807L50.2951 4.71416ZM51.5085 1.68002L51.2767 1.58636L51.2764 1.58719L51.5085 1.68002ZM53.4786 1.67729L53.7108 1.58456L53.7107 1.58438L53.4786 1.67729ZM54.6894 4.7087L54.9244 4.62303L54.9215 4.61597L54.6894 4.7087ZM58.2222 6.46203L58.3831 6.65358L58.3891 6.6482L58.2222 6.46203ZM55.7344 8.55125L55.895 8.74282L55.8951 8.7427L55.7344 8.55125ZM58.3391 6.01688L58.5803 5.94987L58.5759 5.93679L58.3391 6.01688ZM57.9806 5.73012L57.962 5.97948L57.967 5.97975L57.9806 5.73012ZM54.7971 5.49253L54.7775 5.74176L54.7785 5.74183L54.7971 5.49253ZM54.0935 4.96817L54.3258 4.87578L54.3256 4.87534L54.0935 4.96817ZM52.8801 1.93403L52.6479 2.02682L52.648 2.02686L52.8801 1.93403ZM52.1154 1.93403L52.3475 2.02686L52.3475 2.02682L52.1154 1.93403ZM50.902 4.96817L50.6699 4.87534L50.6697 4.87578L50.902 4.96817ZM50.1984 5.49253L50.2168 5.74185L50.2179 5.74176L50.1984 5.49253ZM47.0202 5.72739L47.0336 5.97709L47.0386 5.97671L47.0202 5.72739ZM46.6564 6.01415L46.4196 5.93406L46.4196 5.93406L46.6564 6.01415ZM46.7759 6.47023L46.6099 6.65723L46.614 6.66069L46.7759 6.47023ZM49.2266 8.55398L49.0647 8.74444L49.0649 8.74468L49.2266 8.55398ZM49.5027 9.40879L49.746 9.46658L49.746 9.46637L49.5027 9.40879ZM48.7513 12.5713L48.9924 12.6382L48.9946 12.6291L48.7513 12.5713ZM48.8071 12.929L48.606 13.0776L48.6067 13.0785L48.8071 12.929ZM49.3328 13.0274L49.1981 12.8167L49.1922 12.8207L49.3328 13.0274ZM52.0278 11.3041L52.1625 11.5147L52.1641 11.5136L52.0278 11.3041ZM52.896 11.3014L53.0296 11.0901L53.0292 11.0898L52.896 11.3014ZM55.6175 13.0219L55.7608 12.8167L55.7511 12.8106L55.6175 13.0219ZM56.1273 12.94L55.9317 12.7843L55.93 12.7865L56.1273 12.94ZM56.207 12.5658L56.4515 12.5134L56.4502 12.5079L56.207 12.5658ZM55.4556 9.41152L55.6988 9.35358L55.6985 9.35247L55.4556 9.41152ZM58.0347 4.80622L54.8565 4.57135L54.8196 5.06999L57.9978 5.30486L58.0347 4.80622ZM59.186 5.7213C59.018 5.20281 58.5642 4.83682 58.0307 4.80596L58.0018 5.30512C58.318 5.32341 58.6023 5.54186 58.7104 5.87545L59.186 5.7213ZM58.8002 7.16569C59.2119 6.8028 59.3566 6.24439 59.1859 5.72086L58.7105 5.87589C58.8212 6.21535 58.7271 6.56363 58.4696 6.79064L58.8002 7.16569ZM56.3024 9.26163L58.7956 7.16968L58.4742 6.78665L55.981 8.8786L56.3024 9.26163ZM56.3268 9.19628C56.3319 9.21821 56.3253 9.24189 56.3054 9.25908L55.9781 8.88115C55.8573 8.98573 55.8029 9.15143 55.8399 9.3099L56.3268 9.19628ZM57.0779 12.355L56.3265 9.19525L55.8401 9.31093L56.5915 12.4707L57.0779 12.355ZM56.8274 13.5115C57.0799 13.1878 57.1683 12.7698 57.079 12.3597L56.5905 12.4661C56.6498 12.7387 56.5896 13.0034 56.4331 13.2041L56.8274 13.5115ZM55.8258 14.012C56.2115 14.012 56.586 13.8236 56.828 13.5108L56.4325 13.2048C56.2816 13.4 56.0508 13.512 55.8258 13.512V14.012ZM55.1181 13.7874C55.3279 13.9324 55.5736 14.012 55.8258 14.012V13.512C55.6796 13.512 55.5324 13.4659 55.4024 13.3761L55.1181 13.7874ZM52.4158 12.0808L55.1267 13.7931L55.3937 13.3704L52.6828 11.658L52.4158 12.0808ZM52.5004 12.0803C52.4742 12.0969 52.4412 12.0969 52.4151 12.0803L52.6836 11.6585C52.5459 11.5709 52.3695 11.5709 52.2318 11.6585L52.5004 12.0803ZM49.8165 13.7978L52.5009 12.08L52.2314 11.6588L49.547 13.3766L49.8165 13.7978ZM49.1215 14.012C49.3747 14.012 49.6207 13.9333 49.8239 13.7928L49.5396 13.3816C49.4189 13.465 49.2719 13.512 49.1215 13.512V14.012ZM48.0846 13.4824C48.3288 13.8106 48.7124 14.012 49.1215 14.012V13.512C48.8775 13.512 48.6398 13.3911 48.4857 13.184L48.0846 13.4824ZM47.8764 12.3374C47.7699 12.7356 47.8433 13.1527 48.0834 13.4808L48.4869 13.1856C48.3394 12.9839 48.2906 12.7238 48.3594 12.4665L47.8764 12.3374ZM48.6234 9.19258L47.8747 12.3442L48.3611 12.4597L49.1099 9.30815L48.6234 9.19258ZM48.6446 9.25909C48.6341 9.25006 48.628 9.23973 48.6248 9.22987C48.6215 9.21989 48.62 9.2066 48.6237 9.19132L49.1096 9.30941C49.1483 9.15012 49.091 8.98427 48.9719 8.88115L48.6446 9.25909ZM46.1904 7.17416L48.6464 9.26064L48.9701 8.87959L46.5141 6.7931L46.1904 7.17416ZM45.799 5.72227C45.6246 6.24725 45.7704 6.80638 46.1875 7.17169L46.5169 6.79557C46.2543 6.56552 46.1612 6.21795 46.2735 5.87994L45.799 5.72227ZM46.9593 4.81141C46.4211 4.84216 45.97 5.20464 45.7989 5.72269L46.2736 5.87951C46.384 5.5455 46.6657 5.329 46.9878 5.3106L46.9593 4.81141ZM50.128 4.57682L46.9551 4.81168L46.992 5.31032L50.1649 5.07545L50.128 4.57682ZM50.0648 4.61683C50.0708 4.60283 50.0903 4.57991 50.1259 4.57698L50.1669 5.07529C50.3353 5.06144 50.4664 4.95113 50.5254 4.8115L50.0648 4.61683ZM51.2764 1.58719L50.063 4.62133L50.5272 4.807L51.7406 1.77285L51.2764 1.58719ZM52.4936 0.75C51.9464 0.75 51.4831 1.07555 51.2767 1.58637L51.7403 1.77367C51.8738 1.44334 52.1592 1.25 52.4936 1.25V0.75ZM53.7107 1.58438C53.5066 1.07444 53.0395 0.75 52.4936 0.75V1.25C52.8291 1.25 53.1161 1.44445 53.2465 1.7702L53.7107 1.58438ZM54.9215 4.61597L53.7108 1.58456L53.2465 1.77002L54.4572 4.80143L54.9215 4.61597ZM54.8586 4.57152C54.8703 4.57248 54.8837 4.57684 54.8963 4.58611C54.9093 4.59572 54.9191 4.609 54.9242 4.62307L54.4545 4.79433C54.5139 4.95727 54.6601 5.05688 54.8176 5.06983L54.8586 4.57152ZM58.0615 6.27059L55.5736 8.3598L55.8951 8.7427L58.383 6.65348L58.0615 6.27059ZM58.0982 6.08379C58.103 6.10097 58.1111 6.13614 58.1074 6.17469C58.1043 6.20783 58.0931 6.24208 58.0554 6.27587L58.3891 6.6482C58.6923 6.37645 58.5985 6.01693 58.5799 5.94997L58.0982 6.08379ZM57.967 5.97975C58.0148 5.98237 58.0401 6.00057 58.0594 6.02205C58.0834 6.04876 58.097 6.08148 58.1022 6.09697L58.5759 5.93679C58.5496 5.85918 58.411 5.5033 57.9943 5.4805L57.967 5.97975ZM54.7785 5.74183L57.962 5.97943L57.9992 5.48082L54.8157 5.24322L54.7785 5.74183ZM53.8612 5.06057C54.0154 5.44824 54.3678 5.70962 54.7775 5.74176L54.8166 5.24329C54.5997 5.22628 54.4106 5.08893 54.3258 4.87578L53.8612 5.06057ZM52.648 2.02686L53.8614 5.06101L54.3256 4.87534L53.1122 1.8412L52.648 2.02686ZM52.4977 1.91912C52.5082 1.91912 52.539 1.92122 52.5694 1.93555C52.5934 1.94686 52.6246 1.96843 52.6479 2.02682L53.1122 1.84124C52.9556 1.44944 52.5945 1.41912 52.4977 1.41912V1.91912ZM52.3475 2.02682C52.3709 1.96843 52.4021 1.94686 52.4261 1.93555C52.4565 1.92122 52.4873 1.91912 52.4977 1.91912V1.41912C52.401 1.41912 52.0399 1.44944 51.8833 1.84124L52.3475 2.02682ZM51.1341 5.06101L52.3475 2.02686L51.8833 1.8412L50.6699 4.87534L51.1341 5.06101ZM50.2179 5.74176C50.6276 5.70962 50.9801 5.44824 51.1343 5.06057L50.6697 4.87578C50.5849 5.08893 50.3957 5.22628 50.1788 5.24329L50.2179 5.74176ZM47.0386 5.97671L50.2168 5.74185L50.18 5.24321L47.0018 5.47807L47.0386 5.97671ZM46.8933 6.09424C46.8984 6.07896 46.9118 6.04678 46.9358 6.02041C46.9549 5.99938 46.9815 5.97983 47.0336 5.97704L47.0068 5.47775C46.5861 5.50029 46.4467 5.85382 46.4196 5.93406L46.8933 6.09424ZM46.9419 6.28326C46.8987 6.24489 46.8874 6.20814 46.8843 6.17684C46.8806 6.13911 46.8895 6.10529 46.8933 6.09423L46.4196 5.93406C46.3893 6.02361 46.2987 6.38093 46.6099 6.65719L46.9419 6.28326ZM49.3886 8.36352L46.9379 6.27977L46.614 6.66069L49.0647 8.74444L49.3886 8.36352ZM49.746 9.46637C49.8416 9.06264 49.7031 8.63016 49.3883 8.36328L49.0649 8.74468C49.2334 8.88746 49.3126 9.1268 49.2595 9.3512L49.746 9.46637ZM48.9946 12.6291L49.746 9.46658L49.2595 9.351L48.5081 12.5135L48.9946 12.6291ZM49.0082 12.7805C48.9988 12.7677 48.9904 12.7523 48.9861 12.7333C48.982 12.7155 48.9791 12.6853 48.9922 12.6382L48.5105 12.5044C48.438 12.7651 48.5196 12.9607 48.606 13.0776L49.0082 12.7805ZM49.1922 12.8207C49.1414 12.8552 49.0579 12.8473 49.0075 12.7796L48.6067 13.0785C48.8005 13.3386 49.1791 13.4344 49.4735 13.2341L49.1922 12.8207ZM51.8931 11.0935L49.1981 12.8167L49.4675 13.238L52.1625 11.5147L51.8931 11.0935ZM52.4632 10.9257C52.2619 10.9257 52.063 10.9829 51.8914 11.0946L52.1641 11.5136C52.2527 11.456 52.3565 11.4257 52.4632 11.4257V10.9257ZM53.0292 11.0898C52.8599 10.9832 52.6652 10.9257 52.4632 10.9257V11.4257C52.5693 11.4257 52.6719 11.4557 52.7628 11.5129L53.0292 11.0898ZM55.7511 12.8106L53.0296 11.0901L52.7624 11.5127L55.4839 13.2332L55.7511 12.8106ZM55.8299 12.8456C55.8197 12.8456 55.7997 12.8442 55.7606 12.8169L55.4745 13.2269C55.584 13.3034 55.7021 13.3456 55.8299 13.3456V12.8456ZM55.93 12.7865C55.8958 12.8304 55.8533 12.8456 55.8299 12.8456V13.3456C56.0296 13.3456 56.2102 13.2407 56.3247 13.0935L55.93 12.7865ZM55.9625 12.6183C55.9822 12.7099 55.9481 12.7637 55.9317 12.7843L56.323 13.0956C56.4021 12.9961 56.5114 12.7932 56.4514 12.5134L55.9625 12.6183ZM55.2124 9.46945L55.9638 12.6238L56.4502 12.5079L55.6988 9.35358L55.2124 9.46945ZM55.5737 8.35968C55.2558 8.62624 55.1134 9.06235 55.2126 9.47056L55.6985 9.35247C55.6437 9.12709 55.7243 8.88591 55.895 8.74282L55.5737 8.35968Z" fill="#FE9C9C"/>
<path fill-rule="evenodd" clip-rule="evenodd" d="M69.8322 4.82067L73.0104 5.05554C73.4353 5.08012 73.8043 5.37234 73.9424 5.79837C74.0831 6.22987 73.9636 6.68322 73.6291 6.97817L71.1359 9.07012C71.0855 9.11381 71.0616 9.18482 71.0775 9.25309L71.8289 12.4129C71.9033 12.7542 71.8289 13.0956 71.6245 13.3578C71.428 13.6118 71.1253 13.762 70.82 13.762C70.6208 13.762 70.4243 13.6992 70.2544 13.5817L67.5435 11.8694C67.4878 11.8339 67.4161 11.8339 67.3603 11.8694L64.676 13.5872C64.514 13.6992 64.3175 13.762 64.1157 13.762C63.7891 13.762 63.4785 13.6009 63.2794 13.3332C63.0855 13.0683 63.0245 12.7297 63.1121 12.4019L63.8608 9.25036C63.8768 9.18482 63.8529 9.11381 63.8024 9.07012L61.3464 6.98363C61.0066 6.68595 60.8871 6.2326 61.0304 5.8011C61.1712 5.37507 61.5376 5.08558 61.9677 5.061L65.1406 4.82614C65.207 4.82067 65.2627 4.77698 65.2893 4.71416L66.5027 1.68002C66.6726 1.25945 67.047 1 67.4878 1C67.9285 1 68.3055 1.25945 68.4728 1.67729L69.6836 4.7087C69.7075 4.77425 69.7659 4.81521 69.8322 4.82067ZM70.7257 8.55125L73.2135 6.46203C73.3994 6.29544 73.3463 6.07423 73.3304 6.01688C73.3091 5.95407 73.2215 5.74378 72.9719 5.73012L69.7884 5.49253C69.4751 5.46795 69.2043 5.26859 69.0848 4.96817L67.8714 1.93403C67.7732 1.68824 67.5528 1.66912 67.4891 1.66912C67.4253 1.66912 67.205 1.68824 67.1067 1.93403L65.8933 4.96817C65.7738 5.26859 65.503 5.46795 65.1897 5.49253L62.0115 5.72739C61.7566 5.74105 61.669 5.95134 61.6477 6.01415C61.6265 6.07696 61.5734 6.29817 61.7672 6.47023L64.2179 8.55398C64.4595 8.75881 64.5684 9.09472 64.4941 9.40879L63.7426 12.5713C63.6949 12.7433 63.748 12.8608 63.7984 12.929C63.9205 13.0929 64.1515 13.1448 64.3241 13.0274L67.0191 11.3041C67.1492 11.2194 67.3005 11.1757 67.4545 11.1757C67.6085 11.1757 67.7572 11.2194 67.8873 11.3014L70.6088 13.0219C70.6832 13.0738 70.7522 13.0956 70.8213 13.0956C70.9328 13.0956 71.0443 13.0356 71.1186 12.94C71.1664 12.8799 71.2381 12.7515 71.1983 12.5658L70.4469 9.41152C70.3699 9.09472 70.4814 8.75608 70.7257 8.55125Z" fill="#FE9C9C"/>
<path d="M73.0104 5.05554L72.992 5.30489L72.996 5.30512L73.0104 5.05554ZM69.8322 4.82067L69.8117 5.06984L69.8138 5.06999L69.8322 4.82067ZM73.9424 5.79837L73.7046 5.87545L73.7047 5.87589L73.9424 5.79837ZM73.6291 6.97817L73.7898 7.16974L73.7944 7.16569L73.6291 6.97817ZM71.1359 9.07012L70.9752 8.87858L70.9722 8.88115L71.1359 9.07012ZM71.0775 9.25309L70.834 9.3099L70.8343 9.31093L71.0775 9.25309ZM71.8289 12.4129L72.0732 12.3597L72.0721 12.355L71.8289 12.4129ZM71.6245 13.3578L71.4273 13.2041L71.4267 13.2048L71.6245 13.3578ZM70.2544 13.5817L70.3967 13.3759L70.3879 13.3704L70.2544 13.5817ZM67.5435 11.8694L67.4092 12.0803L67.41 12.0808L67.5435 11.8694ZM67.3603 11.8694L67.226 11.6585L67.2256 11.6588L67.3603 11.8694ZM64.676 13.5872L64.5411 13.3765L64.5338 13.3816L64.676 13.5872ZM63.2794 13.3332L63.0776 13.4808L63.0788 13.4824L63.2794 13.3332ZM63.1121 12.4019L63.3537 12.4665L63.3553 12.4597L63.1121 12.4019ZM63.8608 9.25036L63.6179 9.19132L63.6176 9.19258L63.8608 9.25036ZM63.8024 9.07012L63.9661 8.88114L63.9643 8.87959L63.8024 9.07012ZM61.3464 6.98363L61.1817 7.17171L61.1845 7.17416L61.3464 6.98363ZM61.0304 5.8011L61.2677 5.87994L61.2678 5.87951L61.0304 5.8011ZM61.9677 5.061L61.982 5.31063L61.9862 5.31032L61.9677 5.061ZM65.1406 4.82614L65.1591 5.07546L65.1611 5.07529L65.1406 4.82614ZM65.2893 4.71416L65.5196 4.81152L65.5214 4.807L65.2893 4.71416ZM66.5027 1.68002L66.2709 1.58636L66.2706 1.58719L66.5027 1.68002ZM68.4728 1.67729L68.705 1.58456L68.7049 1.58438L68.4728 1.67729ZM69.6836 4.7087L69.9185 4.62303L69.9157 4.61597L69.6836 4.7087ZM73.2135 6.46203L73.3744 6.65358L73.3804 6.6482L73.2135 6.46203ZM70.7257 8.55125L70.8863 8.74282L70.8864 8.7427L70.7257 8.55125ZM73.3304 6.01688L73.5716 5.94987L73.5672 5.93679L73.3304 6.01688ZM72.9719 5.73012L72.9533 5.97948L72.9583 5.97975L72.9719 5.73012ZM69.7884 5.49253L69.7689 5.74176L69.7698 5.74183L69.7884 5.49253ZM69.0848 4.96817L69.3171 4.87578L69.3169 4.87534L69.0848 4.96817ZM67.8714 1.93403L67.6393 2.02682L67.6393 2.02686L67.8714 1.93403ZM67.1067 1.93403L67.3388 2.02686L67.3389 2.02682L67.1067 1.93403ZM65.8933 4.96817L65.6612 4.87534L65.661 4.87578L65.8933 4.96817ZM65.1897 5.49253L65.2081 5.74185L65.2093 5.74176L65.1897 5.49253ZM62.0115 5.72739L62.0249 5.97709L62.0299 5.97671L62.0115 5.72739ZM61.6477 6.01415L61.4109 5.93406L61.4109 5.93406L61.6477 6.01415ZM61.7672 6.47023L61.6012 6.65723L61.6053 6.66069L61.7672 6.47023ZM64.2179 8.55398L64.056 8.74444L64.0563 8.74468L64.2179 8.55398ZM64.4941 9.40879L64.7373 9.46658L64.7373 9.46637L64.4941 9.40879ZM63.7426 12.5713L63.9837 12.6382L63.9859 12.6291L63.7426 12.5713ZM63.7984 12.929L63.5973 13.0776L63.598 13.0785L63.7984 12.929ZM64.3241 13.0274L64.1894 12.8167L64.1835 12.8207L64.3241 13.0274ZM67.0191 11.3041L67.1538 11.5147L67.1554 11.5136L67.0191 11.3041ZM67.8873 11.3014L68.0209 11.0901L68.0205 11.0898L67.8873 11.3014ZM70.6088 13.0219L70.7521 12.8167L70.7424 12.8106L70.6088 13.0219ZM71.1186 12.94L70.923 12.7843L70.9213 12.7865L71.1186 12.94ZM71.1983 12.5658L71.4428 12.5134L71.4415 12.5079L71.1983 12.5658ZM70.4469 9.41152L70.6901 9.35358L70.6898 9.35247L70.4469 9.41152ZM73.0289 4.80622L69.8507 4.57135L69.8138 5.06999L72.992 5.30486L73.0289 4.80622ZM74.1802 5.7213C74.0122 5.20281 73.5584 4.83682 73.0249 4.80596L72.996 5.30512C73.3122 5.32341 73.5965 5.54186 73.7046 5.87545L74.1802 5.7213ZM73.7944 7.16569C74.206 6.8028 74.3508 6.24439 74.1801 5.72086L73.7047 5.87589C73.8154 6.21535 73.7213 6.56363 73.4638 6.79064L73.7944 7.16569ZM71.2966 9.26163L73.7898 7.16968L73.4684 6.78665L70.9752 8.8786L71.2966 9.26163ZM71.321 9.19628C71.3261 9.21821 71.3194 9.24189 71.2996 9.25908L70.9722 8.88115C70.8515 8.98573 70.7971 9.15143 70.834 9.3099L71.321 9.19628ZM72.0721 12.355L71.3207 9.19525L70.8343 9.31093L71.5857 12.4707L72.0721 12.355ZM71.8216 13.5115C72.0741 13.1878 72.1625 12.7698 72.0732 12.3597L71.5846 12.4661C71.644 12.7387 71.5838 13.0034 71.4273 13.2041L71.8216 13.5115ZM70.82 14.012C71.2056 14.012 71.5802 13.8236 71.8222 13.5108L71.4267 13.2048C71.2758 13.4 71.045 13.512 70.82 13.512V14.012ZM70.1123 13.7874C70.3221 13.9324 70.5678 14.012 70.82 14.012V13.512C70.6738 13.512 70.5266 13.4659 70.3965 13.3761L70.1123 13.7874ZM67.41 12.0808L70.1209 13.7931L70.3879 13.3704L67.677 11.658L67.41 12.0808ZM67.4946 12.0803C67.4684 12.0969 67.4354 12.0969 67.4092 12.0803L67.6778 11.6585C67.5401 11.5709 67.3637 11.5709 67.226 11.6585L67.4946 12.0803ZM64.8107 13.7978L67.4951 12.08L67.2256 11.6588L64.5412 13.3766L64.8107 13.7978ZM64.1157 14.012C64.3689 14.012 64.6149 13.9333 64.8181 13.7928L64.5338 13.3816C64.4131 13.465 64.2661 13.512 64.1157 13.512V14.012ZM63.0788 13.4824C63.323 13.8106 63.7066 14.012 64.1157 14.012V13.512C63.8717 13.512 63.634 13.3911 63.4799 13.184L63.0788 13.4824ZM62.8706 12.3374C62.7641 12.7356 62.8375 13.1527 63.0776 13.4808L63.4811 13.1856C63.3336 12.9839 63.2848 12.7238 63.3536 12.4665L62.8706 12.3374ZM63.6176 9.19258L62.8688 12.3442L63.3553 12.4597L64.1041 9.30815L63.6176 9.19258ZM63.6387 9.25909C63.6283 9.25006 63.6222 9.23973 63.6189 9.22987C63.6157 9.21989 63.6142 9.2066 63.6179 9.19132L64.1038 9.30941C64.1425 9.15012 64.0852 8.98427 63.9661 8.88115L63.6387 9.25909ZM61.1845 7.17416L63.6406 9.26064L63.9643 8.87959L61.5083 6.7931L61.1845 7.17416ZM60.7932 5.72227C60.6188 6.24725 60.7646 6.80638 61.1817 7.17169L61.5111 6.79557C61.2485 6.56552 61.1554 6.21795 61.2677 5.87994L60.7932 5.72227ZM61.9535 4.81141C61.4153 4.84216 60.9642 5.20464 60.7931 5.72269L61.2678 5.87951C61.3782 5.5455 61.6599 5.329 61.982 5.3106L61.9535 4.81141ZM65.1222 4.57682L61.9493 4.81168L61.9862 5.31032L65.1591 5.07545L65.1222 4.57682ZM65.059 4.61683C65.0649 4.60283 65.0845 4.57991 65.1201 4.57698L65.1611 5.07529C65.3295 5.06144 65.4605 4.95113 65.5196 4.8115L65.059 4.61683ZM66.2706 1.58719L65.0572 4.62133L65.5214 4.807L66.7348 1.77285L66.2706 1.58719ZM67.4878 0.75C66.9406 0.75 66.4773 1.07555 66.2709 1.58637L66.7345 1.77367C66.868 1.44334 67.1534 1.25 67.4878 1.25V0.75ZM68.7049 1.58438C68.5008 1.07444 68.0337 0.75 67.4878 0.75V1.25C67.8233 1.25 68.1103 1.44445 68.2407 1.7702L68.7049 1.58438ZM69.9157 4.61597L68.705 1.58456L68.2406 1.77002L69.4514 4.80143L69.9157 4.61597ZM69.8527 4.57152C69.8645 4.57248 69.8779 4.57684 69.8905 4.58611C69.9035 4.59572 69.9133 4.609 69.9184 4.62307L69.4487 4.79433C69.5081 4.95727 69.6543 5.05688 69.8117 5.06983L69.8527 4.57152ZM73.0528 6.27059L70.5649 8.3598L70.8864 8.7427L73.3743 6.65348L73.0528 6.27059ZM73.0895 6.08379C73.0943 6.10097 73.1024 6.13614 73.0988 6.17469C73.0956 6.20783 73.0844 6.24208 73.0467 6.27587L73.3804 6.6482C73.6836 6.37645 73.5898 6.01693 73.5712 5.94997L73.0895 6.08379ZM72.9583 5.97975C73.0061 5.98237 73.0314 6.00057 73.0507 6.02205C73.0747 6.04876 73.0883 6.08148 73.0935 6.09697L73.5672 5.93679C73.5409 5.85918 73.4024 5.5033 72.9856 5.4805L72.9583 5.97975ZM69.7698 5.74183L72.9533 5.97943L72.9905 5.48082L69.807 5.24322L69.7698 5.74183ZM68.8525 5.06057C69.0067 5.44824 69.3591 5.70962 69.7689 5.74176L69.808 5.24329C69.5911 5.22628 69.4019 5.08893 69.3171 4.87578L68.8525 5.06057ZM67.6393 2.02686L68.8527 5.06101L69.3169 4.87534L68.1035 1.8412L67.6393 2.02686ZM67.4891 1.91912C67.4995 1.91912 67.5303 1.92122 67.5607 1.93555C67.5847 1.94686 67.6159 1.96843 67.6393 2.02682L68.1035 1.84124C67.9469 1.44944 67.5858 1.41912 67.4891 1.41912V1.91912ZM67.3389 2.02682C67.3622 1.96843 67.3934 1.94686 67.4174 1.93555C67.4478 1.92122 67.4786 1.91912 67.4891 1.91912V1.41912C67.3923 1.41912 67.0312 1.44944 66.8746 1.84124L67.3389 2.02682ZM66.1254 5.06101L67.3388 2.02686L66.8746 1.8412L65.6612 4.87534L66.1254 5.06101ZM65.2093 5.74176C65.619 5.70962 65.9714 5.44824 66.1256 5.06057L65.661 4.87578C65.5762 5.08893 65.3871 5.22628 65.1701 5.24329L65.2093 5.74176ZM62.0299 5.97671L65.2081 5.74185L65.1713 5.24321L61.9931 5.47807L62.0299 5.97671ZM61.8846 6.09424C61.8897 6.07896 61.9031 6.04678 61.9271 6.02041C61.9462 5.99938 61.9728 5.97983 62.0249 5.97704L61.9981 5.47775C61.5774 5.50029 61.4381 5.85382 61.4109 5.93406L61.8846 6.09424ZM61.9332 6.28326C61.89 6.24489 61.8787 6.20814 61.8756 6.17684C61.8719 6.13911 61.8808 6.10529 61.8846 6.09423L61.4109 5.93406C61.3806 6.02361 61.29 6.38093 61.6013 6.65719L61.9332 6.28326ZM64.3799 8.36352L61.9292 6.27977L61.6053 6.66069L64.056 8.74444L64.3799 8.36352ZM64.7373 9.46637C64.8329 9.06264 64.6944 8.63016 64.3796 8.36328L64.0563 8.74468C64.2247 8.88746 64.3039 9.1268 64.2508 9.3512L64.7373 9.46637ZM63.9859 12.6291L64.7373 9.46658L64.2508 9.351L63.4994 12.5135L63.9859 12.6291ZM63.9995 12.7805C63.9901 12.7677 63.9817 12.7523 63.9774 12.7333C63.9733 12.7155 63.9704 12.6853 63.9835 12.6382L63.5018 12.5044C63.4294 12.7651 63.5109 12.9607 63.5973 13.0776L63.9995 12.7805ZM64.1835 12.8207C64.1327 12.8552 64.0493 12.8473 63.9989 12.7796L63.598 13.0785C63.7918 13.3386 64.1704 13.4344 64.4648 13.2341L64.1835 12.8207ZM66.8844 11.0935L64.1894 12.8167L64.4588 13.238L67.1538 11.5147L66.8844 11.0935ZM67.4545 10.9257C67.2533 10.9257 67.0544 10.9829 66.8827 11.0946L67.1554 11.5136C67.244 11.456 67.3478 11.4257 67.4545 11.4257V10.9257ZM68.0205 11.0898C67.8512 10.9832 67.6565 10.9257 67.4545 10.9257V11.4257C67.5606 11.4257 67.6632 11.4557 67.7541 11.5129L68.0205 11.0898ZM70.7424 12.8106L68.0209 11.0901L67.7537 11.5127L70.4753 13.2332L70.7424 12.8106ZM70.8213 12.8456C70.8111 12.8456 70.7911 12.8442 70.7519 12.8169L70.4658 13.2269C70.5753 13.3034 70.6934 13.3456 70.8213 13.3456V12.8456ZM70.9213 12.7865C70.8871 12.8304 70.8446 12.8456 70.8213 12.8456V13.3456C71.0209 13.3456 71.2015 13.2407 71.316 13.0935L70.9213 12.7865ZM70.9538 12.6183C70.9735 12.7099 70.9394 12.7637 70.923 12.7843L71.3143 13.0956C71.3935 12.9961 71.5027 12.7932 71.4427 12.5134L70.9538 12.6183ZM70.2037 9.46945L70.9551 12.6238L71.4415 12.5079L70.6901 9.35358L70.2037 9.46945ZM70.565 8.35968C70.2471 8.62624 70.1047 9.06235 70.204 9.47056L70.6898 9.35247C70.635 9.12709 70.7157 8.88591 70.8863 8.74282L70.565 8.35968Z" fill="#FE9C9C"/>
</svg>
